<svg height="512" width="512" xmlns="http://www.w3.org/2000/svg"><path d="m378.0400085 424.2304993h-244.0800781c-26.1040649 0-47.461937-21.3578796-47.461937-47.4619446v-244.0800781c0-26.1040726 21.357872-47.4619446 47.461937-47.4619446h244.0800781c26.1040649 0 47.4619446 21.357872 47.4619446 47.4619446v244.0800781c0 26.1040649-21.3578796 47.4619446-47.4619446 47.4619446zm-39.8469238-253.0592957h-160.2936249v160.2936096h160.2936249zm-155.8425445-171.1712036h-29.8509979v71.767746h29.8509979zm59.8793335 0h-29.8509979v71.767746h29.8509979zm59.8798065 0h-29.8509827v71.767746h29.8509827zm59.8788452 0h-29.8509827v71.767746h29.8509827zm-288.9492951 329.6844482h-73.0392303v29.8509827h73.0392303zm0-59.8788452h-73.0392303v29.8509827h73.0392303zm0-59.8798218h-73.0392303v29.8509979h73.0392303zm0-59.8793334h-73.0392303v29.8509979h73.0392303zm438.9607697 179.6380004h-73.0392456v29.8509827h73.0392456zm0-59.8788452h-73.0392456v29.8509827h73.0392456zm0-59.8798218h-73.0392456v29.8509979h73.0392456zm0-59.8793334h-73.0392456v29.8509979h73.0392456zm-329.6499481 290.1858215h-29.8509979v71.7677307h29.8509979zm59.8798218 0h-29.8509979v71.7677307h29.8509979zm59.8788299 0h-29.8509827v71.7677307h29.8509827zm59.8798218 0h-29.8509827v71.7677307h29.8509827zm-210.4378357-311.3309937c0-12.2711411-13.375473-19.9822464-24.0180664-13.8466721-10.6425934 6.1355667-10.6425858 21.5577774 0 27.6933517s24.0180664-1.5755309 24.0180664-13.8466796z"/></svg>